P1
# Toad - oscilador
6 6
0 0 0 0 0 0
0 0 0 0 0 0
0 0 1 1 1 0
0 1 1 1 0 0
0 0 0 0 0 0
0 0 0 0 0 0